<?xml version="1.0" encoding="utf-8"?>
<!-- Generator: Adobe Illustrator 27.7.0, SVG Export Plug-In . SVG Version: 6.00 Build 0)  -->
<svg version="1.1" id="Layer_1" xmlns="http://www.w3.org/2000/svg" xmlns:xlink="http://www.w3.org/1999/xlink" x="0px" y="0px"
	 viewBox="0 0 445.6 444.27" style="enable-background:new 0 0 445.6 444.27;" xml:space="preserve">
<style type="text/css">
	.st0{fill:none;stroke:#B8E3ED;stroke-width:67;stroke-linecap:round;stroke-miterlimit:10;}
	.st1{fill:none;stroke:#00ADD4;stroke-width:7;stroke-linecap:round;stroke-miterlimit:10;}
	.st2{fill:#FFFFFF;stroke:#000000;stroke-miterlimit:10;}
	.st3{fill:none;stroke:#528ECB;stroke-width:7;stroke-linecap:round;stroke-miterlimit:10;}
	.st4{fill:none;stroke:#008BAA;stroke-width:7;stroke-linecap:round;stroke-miterlimit:10;}
	.st5{fill:none;stroke:#046994;stroke-width:7;stroke-linecap:round;stroke-miterlimit:10;}
</style>
<ellipse class="st0" cx="221.76" cy="216.64" rx="190.62" ry="183.78"/>
<path class="st1" d="M86.82,225.97L232.24,80.55c1.17-1.17,3.06-1.17,4.23,0l119.36,119.36c1.17,1.17,1.17,3.06,0,4.23
	L207.24,352.73c-1.17,1.17-3.06,1.17-4.23,0L96.15,245.86c-1.88-1.88-0.55-5.1,2.11-5.1h192.25c0.79,0,1.55-0.32,2.11-0.88
	l33.63-33.63c1.17-1.17,1.17-3.06,0-4.23l-95.77-95.77c-1.17-1.17-3.06-1.17-4.23,0L116.22,216.29c-1.88,1.88-0.55,5.1,2.11,5.1
	h168.66c0.79,0,1.55-0.32,2.11-0.88l15.14-15.14c1.17-1.17,1.17-3.06,0-4.23L230.3,127.2c-1.17-1.17-3.06-1.17-4.23,0l-72.36,72.36
	c-1.88,1.88-0.55,5.1,2.11,5.1h113.55c0.79,0,1.55-0.32,2.11-0.88l6.78-6.78c1.17-1.17,1.17-3.06,0-4.23l-44.8-44.8
	c-1.17-1.17-3.06-1.17-4.23,0l-35.04,35.04c-1.88,1.88-0.55,5.1,2.11,5.1h45.95c2.66,0,4-3.22,2.11-5.1l-15.23-15.23
	c-1.17-1.17-3.06-1.17-4.23,0l-4.67,4.67c-1.88,1.88-0.55,5.1,2.11,5.1h0"/>
<path class="st2" d="M394.56,238.65"/>
<circle class="st1" cx="221.76" cy="216.64" r="160.95"/>
<ellipse class="st3" cx="221.76" cy="216.64" rx="177.04" ry="175.44"/>
<ellipse class="st4" cx="221.76" cy="216.64" rx="194.75" ry="191.22"/>
<ellipse class="st5" cx="221.76" cy="216.64" rx="214.22" ry="208.43"/>
<circle class="st5" cx="40.54" cy="401.94" r="13.53"/>
</svg>
